<svg width="283" height="47" viewBox="0 0 283 47" fill="none" xmlns="http://www.w3.org/2000/svg">
<path fill-rule="evenodd" clip-rule="evenodd" d="M32.6525 10.0251L26.7904 0L1 44.1936H12.8798C16.5982 44.1936 20.0365 42.2181 21.9091 39.0057L32.6596 20.5645C34.5584 17.3073 34.5557 13.2798 32.6525 10.0251Z" fill="#D1EDD4"/>
<path fill-rule="evenodd" clip-rule="evenodd" d="M26.92 30.7188H14.8921C11.1837 30.7188 7.75302 32.6837 5.87683 35.8825L1 44.1971H13.0279C16.7362 44.1971 20.167 42.2321 22.0432 39.0334L26.92 30.7188Z" fill="url(#paint0_linear_879_8370)"/>
<path fill-rule="evenodd" clip-rule="evenodd" d="M20.9293 10.0251L26.7914 0L52.5818 44.1936H40.702C36.9836 44.1936 33.5453 42.2181 31.6727 39.0057L20.9222 20.5645C19.0234 17.3073 19.0261 13.2798 20.9293 10.0251Z" fill="url(#paint1_linear_879_8370)"/>
<path d="M63.3841 19.9016L64.6483 16.1962H70.8604L72.1138 19.9016H74.8057L69.0404 4.03356H66.5338L60.7031 19.9016H63.3841ZM70.1084 13.9838H65.4112L67.7435 7.20501H67.8089L70.1084 13.9838ZM83.5222 20.1305C85.0334 20.1305 86.2705 19.8854 87.2332 19.3949C88.1959 18.9044 88.8878 18.3578 89.3093 17.7547V11.8368H83.5114V13.8204H86.6609V17.0464C86.4284 17.3078 86.0543 17.5349 85.5385 17.7275C85.0226 17.92 84.3505 18.0163 83.5222 18.0163C82.3597 18.0163 81.4133 17.6039 80.6831 16.7792C79.9529 15.9547 79.5878 14.9029 79.5878 13.6242V10.2893C79.5878 9.02505 79.924 7.98243 80.596 7.1614C81.2681 6.34039 82.1527 5.92989 83.2498 5.92989C84.3178 5.92989 85.1333 6.1969 85.6964 6.73092C86.2595 7.26495 86.5702 7.96789 86.6282 8.83977H89.1349L89.1568 8.77438C89.1349 7.29945 88.6063 6.10245 87.571 5.18334C86.5357 4.26424 85.0843 3.80469 83.2171 3.80469C81.3716 3.80469 79.8658 4.40955 78.6997 5.61928C77.5336 6.829 76.9505 8.39293 76.9505 10.3111V13.6242C76.9505 15.5423 77.5681 17.1062 78.8032 18.316C80.0384 19.5257 81.6113 20.1305 83.5222 20.1305ZM96.0424 19.9016V13.319H99.5734C100.387 13.319 101.027 13.5588 101.492 14.0383C101.957 14.5179 102.189 15.1645 102.189 15.9782V17.2534C102.189 17.7475 102.231 18.2524 102.314 18.7682C102.398 19.2841 102.585 19.6619 102.876 19.9016H105.6V19.651C105.324 19.4185 105.128 19.0807 105.012 18.6374C104.896 18.1943 104.837 17.7401 104.837 17.2751V15.9565C104.837 15.0191 104.641 14.229 104.249 13.586C103.856 12.943 103.214 12.4798 102.32 12.1965C103.134 11.8405 103.753 11.3664 104.178 10.7742C104.603 10.1821 104.816 9.47551 104.816 8.65449C104.816 7.17231 104.332 6.0316 103.366 5.23239C102.4 4.43317 101.03 4.03356 99.2573 4.03356H93.394V19.9016H96.0424ZM99.1157 11.1938H96.0424V6.15876H99.2573C100.238 6.15876 100.968 6.3858 101.448 6.83991C101.927 7.294 102.167 7.92067 102.167 8.71989C102.167 9.55543 101.924 10.1766 101.437 10.5835C100.95 10.9904 100.177 11.1938 99.1157 11.1938ZM111.81 19.9016V4.03356H109.162V19.9016H111.81ZM121.944 20.1305C123.775 20.1305 125.226 19.6274 126.298 18.6211C127.369 17.6149 127.891 16.3088 127.861 14.7031L127.84 14.6377H125.289C125.289 15.713 125.006 16.5449 124.439 17.1335C123.873 17.722 123.041 18.0163 121.944 18.0163C120.839 18.0163 119.962 17.5876 119.312 16.7303C118.661 15.8729 118.336 14.7903 118.336 13.4825V10.4418C118.336 9.14856 118.654 8.07324 119.29 7.2159C119.926 6.35856 120.785 5.92989 121.867 5.92989C122.993 5.92989 123.845 6.22777 124.423 6.82356C125.001 7.41934 125.289 8.25126 125.289 9.3193H127.85L127.872 9.2539C127.901 7.59007 127.376 6.26592 126.298 5.28142C125.219 4.29694 123.742 3.80469 121.867 3.80469C120.036 3.80469 118.549 4.43134 117.404 5.68467C116.26 6.93799 115.688 8.53098 115.688 10.4636V13.4825C115.688 15.4225 116.267 17.0155 117.426 18.2615C118.585 19.5076 120.091 20.1305 121.944 20.1305ZM137.123 20.1305C138.976 20.1305 140.476 19.6601 141.624 18.7192C142.772 17.7784 143.346 16.4287 143.346 14.6704V4.03356H140.698V14.6704C140.698 15.782 140.374 16.6177 139.728 17.177C139.081 17.7365 138.213 18.0163 137.123 18.0163C136.069 18.0163 135.23 17.7365 134.605 17.177C133.981 16.6177 133.668 15.782 133.668 14.6704V4.03356H131.02V14.6704C131.02 16.4215 131.583 17.7692 132.709 18.7138C133.835 19.6583 135.307 20.1305 137.123 20.1305ZM157.283 19.9016V17.7874H149.992V4.03356H147.343V19.9016H157.283ZM164.038 19.9016V6.15876H168.833V4.03356H156.595V6.15876H161.389V19.9016H164.038ZM177.571 20.1305C179.425 20.1305 180.925 19.6601 182.072 18.7192C183.22 17.7784 183.794 16.4287 183.794 14.6704V4.03356H181.147V14.6704C181.147 15.782 180.823 16.6177 180.176 17.177C179.53 17.7365 178.661 18.0163 177.571 18.0163C176.518 18.0163 175.679 17.7365 175.054 17.177C174.43 16.6177 174.116 15.782 174.116 14.6704V4.03356H171.469V14.6704C171.469 16.4215 172.031 17.7692 173.158 18.7138C174.284 19.6583 175.756 20.1305 177.571 20.1305ZM190.441 19.9016V13.319H193.972C194.785 13.319 195.425 13.5588 195.89 14.0383C196.355 14.5179 196.588 15.1645 196.588 15.9782V17.2534C196.588 17.7475 196.628 18.2524 196.712 18.7682C196.796 19.2841 196.984 19.6619 197.273 19.9016H199.999V19.651C199.723 19.4185 199.526 19.0807 199.409 18.6374C199.294 18.1943 199.235 17.7401 199.235 17.2751V15.9565C199.235 15.0191 199.039 14.229 198.647 13.586C198.254 12.943 197.611 12.4798 196.718 12.1965C197.531 11.8405 198.151 11.3664 198.577 10.7742C199.001 10.1821 199.214 9.47551 199.214 8.65449C199.214 7.17231 198.73 6.0316 197.764 5.23239C196.798 4.43317 195.428 4.03356 193.655 4.03356H187.792V19.9016H190.441ZM193.514 11.1938H190.441V6.15876H193.655C194.636 6.15876 195.367 6.3858 195.845 6.83991C196.325 7.294 196.565 7.92067 196.565 8.71989C196.565 9.55543 196.322 10.1766 195.835 10.5835C195.349 10.9904 194.575 11.1938 193.514 11.1938ZM213.569 19.9016V17.7874H206.279V4.03356H203.63V19.9016H213.569Z" fill="#2D2D2D"/>
<path d="M63.3841 44.0813L64.6483 40.3759H70.8604L72.1138 44.0813H74.8057L69.0404 28.2133H66.5338L60.7031 44.0813H63.3841ZM70.1084 38.1635H65.4112L67.7435 31.3847H67.8089L70.1084 38.1635ZM82.6285 44.0813C84.6412 44.0813 86.2777 43.4566 87.5383 42.2069C88.7989 40.9571 89.4292 39.3406 89.4292 37.3571V34.9484C89.4292 32.9722 88.7989 31.3556 87.5383 30.0986C86.2777 28.8418 84.6412 28.2133 82.6285 28.2133H77.4845V44.0813H82.6285ZM82.5523 41.9671H80.1328V30.3385H82.5523C83.8673 30.3385 84.9008 30.7672 85.6529 31.6244C86.4049 32.4818 86.7809 33.5825 86.7809 34.9267V37.3571C86.7809 38.7157 86.4049 39.8237 85.6529 40.6811C84.9008 41.5384 83.8673 41.9671 82.5523 41.9671ZM93.8735 44.0813L95.1377 40.3759H101.35L102.603 44.0813H105.295L99.5299 28.2133H97.0232L91.1926 44.0813H93.8735ZM100.598 38.1635H95.9006L98.233 31.3847H98.2984L100.598 38.1635ZM110.622 44.0813V38.0654H114.175C115.926 38.0654 117.298 37.6168 118.289 36.7195C119.281 35.8222 119.777 34.6288 119.777 33.1394C119.777 31.6645 119.281 30.4747 118.289 29.5702C117.298 28.6655 115.926 28.2133 114.175 28.2133H107.974V44.0813H110.622ZM114.175 35.9402H110.622V30.3385H114.175C115.156 30.3385 115.894 30.6073 116.388 31.1449C116.882 31.6826 117.129 32.3546 117.129 33.1612C117.129 33.9676 116.882 34.6324 116.388 35.1556C115.894 35.6786 115.156 35.9402 114.175 35.9402ZM129.278 44.0813V30.3385H134.074V28.2133H121.835V30.3385H126.63V44.0813H129.278ZM136.959 44.0813L138.224 40.3759H144.436L145.689 44.0813H148.381L142.616 28.2133H140.109L134.278 44.0813H136.959ZM143.684 38.1635H138.986L141.319 31.3847H141.384L143.684 38.1635ZM157.109 44.0813V30.3385H161.903V28.2133H149.665V30.3385H154.46V44.0813H157.109ZM167.612 44.0813V28.2133H164.965V44.0813H167.612ZM177.877 44.3102C179.816 44.3102 181.394 43.6727 182.612 42.3976C183.829 41.1224 184.438 39.5149 184.438 37.5751V34.7197C184.438 32.7869 183.827 31.1813 182.606 29.9026C181.385 28.6238 179.806 27.9844 177.866 27.9844C175.969 27.9844 174.427 28.6238 173.239 29.9026C172.051 31.1813 171.457 32.7869 171.457 34.7197V37.5751C171.457 39.5149 172.051 41.1224 173.239 42.3976C174.427 43.6727 175.973 44.3102 177.877 44.3102ZM177.877 42.1415C176.707 42.1415 175.784 41.7146 175.108 40.861C174.433 40.0072 174.095 38.9119 174.095 37.5751V34.6978C174.095 33.3755 174.433 32.2892 175.108 31.4392C175.784 30.5891 176.704 30.164 177.866 30.164C179.072 30.164 180.029 30.5891 180.737 31.4392C181.445 32.2892 181.801 33.3755 181.801 34.6978V37.5751C181.801 38.9192 181.45 40.0163 180.748 40.8664C180.047 41.7164 179.09 42.1415 177.877 42.1415ZM190.789 44.0813V32.5181L190.855 32.4964L197.894 44.0813H200.533V28.2133H197.894V39.7657L197.83 39.7874L190.789 28.2133H188.141V44.0813H190.789ZM212.363 44.0813L213.628 40.3759H219.839L221.093 44.0813H223.786L218.02 28.2133H215.513L209.683 44.0813H212.363ZM219.088 38.1635H214.391L216.724 31.3847H216.788L219.088 38.1635ZM232.513 44.0813V30.3385H237.308V28.2133H225.07V30.3385H229.864V44.0813H232.513ZM250.156 44.0813V41.9671H242.864V28.2133H240.215V44.0813H250.156ZM254.468 44.0813L255.733 40.3759H261.944L263.198 44.0813H265.891L260.125 28.2133H257.618L251.788 44.0813H254.468ZM261.193 38.1635H256.496L258.829 31.3847H258.893L261.193 38.1635ZM274.061 44.3102C275.783 44.3102 277.174 43.9198 278.231 43.1387C279.287 42.3577 279.817 41.3059 279.817 39.9836C279.817 38.7338 279.373 37.7059 278.486 36.8993C277.6 36.0928 276.304 35.4607 274.595 35.003C273.295 34.6469 272.363 34.2692 271.801 33.8696C271.237 33.4699 270.956 32.9686 270.956 32.3656C270.956 31.6972 271.216 31.1522 271.735 30.7309C272.255 30.3094 272.998 30.0986 273.964 30.0986C274.988 30.0986 275.777 30.3512 276.329 30.8561C276.881 31.361 277.157 32.0204 277.157 32.8342H279.697L279.718 32.7688C279.754 31.4537 279.244 30.3275 278.186 29.3903C277.13 28.453 275.729 27.9844 273.986 27.9844C272.314 27.9844 270.95 28.3985 269.893 29.2268C268.837 30.0551 268.307 31.1086 268.307 32.3873C268.307 33.6298 268.786 34.6343 269.741 35.4008C270.697 36.1673 272.06 36.7831 273.833 37.2481C275.075 37.5823 275.942 37.9601 276.433 38.3815C276.923 38.803 277.168 39.3442 277.168 40.0054C277.168 40.6811 276.895 41.2169 276.35 41.6129C275.806 42.0089 275.042 42.2069 274.061 42.2069C272.993 42.2069 272.126 41.9689 271.457 41.4931C270.788 41.0171 270.454 40.2959 270.454 39.3296H267.904L267.883 39.395C267.847 40.9208 268.453 42.1214 269.702 42.997C270.952 43.8725 272.405 44.3102 274.061 44.3102Z" fill="#2D2D2D"/>
<path d="M206.266 5.08594H213.178H206.266Z" fill="#2D2D2D"/>
<path d="M206.266 5.08594H213.178" stroke="#2D2D2D" stroke-width="2.1"/>
<path d="M206.266 11.9688H213.178H206.266Z" fill="#2D2D2D"/>
<path d="M206.266 11.9688H213.178" stroke="#2D2D2D" stroke-width="2.1"/>
<defs>
<linearGradient id="paint0_linear_879_8370" x1="26.92" y1="35.6357" x2="5.49327" y2="46.7776" gradientUnits="userSpaceOnUse">
<stop stop-color="#1B8F29"/>
<stop offset="1" stop-color="#0FBC23"/>
</linearGradient>
<linearGradient id="paint1_linear_879_8370" x1="31.0096" y1="7.54032e-07" x2="54.9326" y2="38.8521" gradientUnits="userSpaceOnUse">
<stop stop-color="#BFECC4"/>
<stop offset="1" stop-color="#2E7636"/>
</linearGradient>
</defs>
</svg>
