<svg width="170" height="28" viewBox="0 0 170 28" fill="none" xmlns="http://www.w3.org/2000/svg">
<path fill-rule="evenodd" clip-rule="evenodd" d="M19.0618 6.01505L15.5445 0L0.0703125 26.5162H7.19817C9.42921 26.5162 11.4922 25.3309 12.6157 23.4034L19.066 12.3387C20.2054 10.3844 20.2037 7.9679 19.0618 6.01505Z" fill="#D1EDD4"/>
<path fill-rule="evenodd" clip-rule="evenodd" d="M15.6223 18.4297H8.40558C6.18055 18.4297 4.12212 19.6087 2.99641 21.5279L0.0703125 26.5167H7.28704C9.51203 26.5167 11.5705 25.3377 12.6962 23.4185L15.6223 18.4297Z" fill="url(#paint0_linear_413_7820)"/>
<path fill-rule="evenodd" clip-rule="evenodd" d="M12.0255 6.01505L15.5428 0L31.0171 26.5162H23.8892C21.6582 26.5162 19.5952 25.3309 18.4716 23.4034L12.0213 12.3387C10.882 10.3844 10.8836 7.9679 12.0255 6.01505Z" fill="url(#paint1_linear_413_7820)"/>
<path d="M37.4992 11.9414L38.2577 9.71808H41.985L42.737 11.9414H44.3522L40.893 2.42053H39.389L35.8906 11.9414H37.4992ZM41.5338 8.39068H38.7155L40.1149 4.3234H40.1541L41.5338 8.39068ZM49.5821 12.0787C50.4888 12.0787 51.231 11.9316 51.8087 11.6373C52.3863 11.343 52.8014 11.0151 53.0543 10.6532V7.1025H49.5756V8.2926H51.4653V10.2282C51.3258 10.3851 51.1013 10.5213 50.7918 10.6369C50.4823 10.7524 50.079 10.8101 49.5821 10.8101C48.8846 10.8101 48.3167 10.5627 47.8786 10.0679C47.4405 9.57318 47.2214 8.94215 47.2214 8.1749V6.17395C47.2214 5.41542 47.4231 4.78985 47.8263 4.29723C48.2296 3.80463 48.7604 3.55832 49.4186 3.55832C50.0594 3.55832 50.5487 3.71853 50.8866 4.03894C51.2245 4.35936 51.4109 4.78113 51.4457 5.30425H52.9497L52.9628 5.26502C52.9497 4.38006 52.6325 3.66186 52.0113 3.11039C51.3902 2.55894 50.5193 2.2832 49.399 2.2832C48.2917 2.2832 47.3882 2.64612 46.6886 3.37196C45.9889 4.09779 45.6391 5.03615 45.6391 6.18702V8.1749C45.6391 9.32577 46.0096 10.2641 46.7507 10.99C47.4918 11.7158 48.4355 12.0787 49.5821 12.0787ZM57.0942 11.9414V7.9918H59.2128C59.701 7.9918 60.0847 8.13567 60.3637 8.42338C60.6427 8.7111 60.7822 9.09906 60.7822 9.58731V10.3524C60.7822 10.6489 60.8072 10.9518 60.8573 11.2613C60.9075 11.5708 61.0198 11.7975 61.1941 11.9414H62.8289V11.791C62.6633 11.6515 62.5456 11.4488 62.4758 11.1828C62.4061 10.917 62.3711 10.6445 62.3711 10.3655V9.57427C62.3711 9.01186 62.2535 8.53782 62.0181 8.15201C61.7826 7.76621 61.3969 7.4883 60.8607 7.31828C61.3489 7.10467 61.7205 6.82022 61.9756 6.46494C62.2306 6.10964 62.3581 5.6857 62.3581 5.19308C62.3581 4.30378 62.0682 3.61935 61.4884 3.13982C60.9086 2.66029 60.0869 2.42053 59.0231 2.42053H55.5051V11.9414H57.0942ZM58.9382 6.71668H57.0942V3.69565H59.0231C59.6117 3.69565 60.0498 3.83187 60.3375 4.10434C60.6252 4.37679 60.7691 4.75279 60.7691 5.23232C60.7691 5.73365 60.6231 6.10638 60.331 6.3505C60.0389 6.59463 59.5747 6.71668 58.9382 6.71668ZM66.5549 11.9414V2.42053H64.9658V11.9414H66.5549ZM72.6349 12.0787C73.7335 12.0787 74.6042 11.7768 75.2473 11.173C75.8902 10.5693 76.2031 9.78567 76.1856 8.82227L76.1726 8.78303H74.6424C74.6424 9.42819 74.4724 9.92733 74.1323 10.2805C73.7923 10.6336 73.2932 10.8101 72.6349 10.8101C71.9723 10.8101 71.4458 10.5529 71.0557 10.0386C70.6655 9.52413 70.4704 8.87458 70.4704 8.08989V6.2655C70.4704 5.48953 70.6612 4.84433 71.0426 4.32993C71.4241 3.81553 71.9396 3.55832 72.5891 3.55832C73.2648 3.55832 73.7759 3.73705 74.1225 4.09453C74.4691 4.452 74.6424 4.95114 74.6424 5.59197H76.179L76.1922 5.55273C76.2095 4.55443 75.8946 3.75994 75.2473 3.16924C74.5999 2.57856 73.7138 2.2832 72.5891 2.2832C71.4906 2.2832 70.598 2.6592 69.9113 3.41119C69.2247 4.16319 68.8815 5.11898 68.8815 6.27857V8.08989C68.8815 9.25386 69.2291 10.2097 69.9245 10.9573C70.6197 11.7049 71.5232 12.0787 72.6349 12.0787ZM81.7425 12.0787C82.8542 12.0787 83.7543 11.7965 84.4431 11.2319C85.1319 10.6674 85.4763 9.85758 85.4763 8.80265V2.42053H83.8874V8.80265C83.8874 9.46959 83.6933 9.97098 83.3053 10.3066C82.9173 10.6423 82.3964 10.8101 81.7425 10.8101C81.1104 10.8101 80.6069 10.6423 80.232 10.3066C79.8571 9.97098 79.6696 9.46959 79.6696 8.80265V2.42053H78.0806V8.80265C78.0806 9.85326 78.4185 10.6619 79.0941 11.2286C79.7699 11.7954 80.6527 12.0787 81.7425 12.0787ZM93.8387 11.9414V10.6728H89.4638V2.42053H87.8748V11.9414H93.8387ZM97.8913 11.9414V3.69565H100.769V2.42053H93.4256V3.69565H96.302V11.9414H97.8913ZM106.011 12.0787C107.124 12.0787 108.024 11.7965 108.712 11.2319C109.401 10.6674 109.745 9.85758 109.745 8.80265V2.42053H108.157V8.80265C108.157 9.46959 107.962 9.97098 107.574 10.3066C107.187 10.6423 106.665 10.8101 106.011 10.8101C105.379 10.8101 104.876 10.6423 104.501 10.3066C104.127 9.97098 103.938 9.46959 103.938 8.80265V2.42053H102.35V8.80265C102.35 9.85326 102.687 10.6619 103.363 11.2286C104.039 11.7954 104.922 12.0787 106.011 12.0787ZM113.733 11.9414V7.9918H115.852C116.34 7.9918 116.724 8.13567 117.003 8.42338C117.282 8.7111 117.421 9.09906 117.421 9.58731V10.3524C117.421 10.6489 117.446 10.9518 117.496 11.2613C117.546 11.5708 117.659 11.7975 117.833 11.9414H119.468V11.791C119.302 11.6515 119.184 11.4488 119.114 11.1828C119.045 10.917 119.01 10.6445 119.01 10.3655V9.57427C119.01 9.01186 118.892 8.53782 118.657 8.15201C118.421 7.76621 118.035 7.4883 117.5 7.31828C117.987 7.10467 118.359 6.82022 118.615 6.46494C118.869 6.10964 118.997 5.6857 118.997 5.19308C118.997 4.30378 118.707 3.61935 118.127 3.13982C117.547 2.66029 116.726 2.42053 115.662 2.42053H112.144V11.9414H113.733ZM115.577 6.71668H113.733V3.69565H115.662C116.25 3.69565 116.689 3.83187 116.976 4.10434C117.264 4.37679 117.408 4.75279 117.408 5.23232C117.408 5.73365 117.262 6.10638 116.97 6.3505C116.678 6.59463 116.214 6.71668 115.577 6.71668ZM127.61 11.9414V10.6728H123.236V2.42053H121.647V11.9414H127.61Z" fill="white"/>
<path d="M37.4992 26.4492L38.2577 24.2259H41.985L42.737 26.4492H44.3522L40.893 16.9284H39.389L35.8906 26.4492H37.4992ZM41.5338 22.8985H38.7155L40.1149 18.8312H40.1541L41.5338 22.8985ZM49.0458 26.4492C50.2535 26.4492 51.2354 26.0743 51.9917 25.3245C52.7481 24.5747 53.1263 23.6047 53.1263 22.4147V20.9694C53.1263 19.7837 52.7481 18.8138 51.9917 18.0596C51.2354 17.3055 50.2535 16.9284 49.0458 16.9284H45.9595V26.4492H49.0458ZM49.0001 25.1806H47.5484V18.2035H49.0001C49.7891 18.2035 50.4092 18.4607 50.8605 18.975C51.3117 19.4895 51.5373 20.1499 51.5373 20.9564V22.4147C51.5373 23.2298 51.3117 23.8946 50.8605 24.4091C50.4092 24.9234 49.7891 25.1806 49.0001 25.1806ZM55.7929 26.4492L56.5514 24.2259H60.2786L61.0307 26.4492H62.6458L59.1867 16.9284H57.6827L54.1843 26.4492H55.7929ZM59.8275 22.8985H57.0091L58.4085 18.8312H58.4478L59.8275 22.8985ZM65.8421 26.4492V22.8396H67.9738C69.0245 22.8396 69.8473 22.5705 70.4424 22.0321C71.0374 21.4937 71.335 20.7777 71.335 19.884C71.335 18.9991 71.0374 18.2852 70.4424 17.7425C69.8473 17.1997 69.0245 16.9284 67.9738 16.9284H64.2531V26.4492H65.8421ZM67.9738 21.5645H65.8421V18.2035H67.9738C68.5623 18.2035 69.0049 18.3648 69.3013 18.6873C69.5977 19.01 69.7459 19.4132 69.7459 19.8971C69.7459 20.3809 69.5977 20.7798 69.3013 21.0937C69.0049 21.4076 68.5623 21.5645 67.9738 21.5645ZM77.0357 26.4492V18.2035H79.9129V16.9284H72.5695V18.2035H75.4467V26.4492H77.0357ZM81.6444 26.4492L82.403 24.2259H86.1303L86.8822 26.4492H88.4973L85.0382 16.9284H83.5342L80.0358 26.4492H81.6444ZM85.679 22.8985H82.8606L84.2601 18.8312H84.2993L85.679 22.8985ZM93.7343 26.4492V18.2035H96.6107V16.9284H89.2677V18.2035H92.1449V26.4492H93.7343ZM100.036 26.4492V16.9284H98.4476V26.4492H100.036ZM106.195 26.5865C107.358 26.5865 108.305 26.204 109.036 25.4389C109.766 24.6738 110.131 23.7093 110.131 22.5454V20.8322C110.131 19.6725 109.765 18.7092 109.032 17.9419C108.3 17.1747 107.352 16.791 106.188 16.791C105.05 16.791 104.125 17.1747 103.412 17.9419C102.699 18.7092 102.343 19.6725 102.343 20.8322V22.5454C102.343 23.7093 102.699 24.6738 103.412 25.4389C104.125 26.204 105.053 26.5865 106.195 26.5865ZM106.195 25.2853C105.493 25.2853 104.939 25.0292 104.533 24.517C104.128 24.0047 103.926 23.3475 103.926 22.5454V20.8191C103.926 20.0257 104.128 19.3739 104.533 18.8639C104.939 18.3539 105.491 18.0988 106.188 18.0988C106.912 18.0988 107.486 18.3539 107.911 18.8639C108.336 19.3739 108.549 20.0257 108.549 20.8191V22.5454C108.549 23.3519 108.339 24.0102 107.917 24.5202C107.497 25.0302 106.923 25.2853 106.195 25.2853ZM113.942 26.4492V19.5113L113.982 19.4982L118.205 26.4492H119.788V16.9284H118.205V23.8598L118.167 23.8728L113.942 16.9284H112.353V26.4492H113.942ZM126.887 26.4492L127.645 24.2259H131.372L132.125 26.4492H133.74L130.281 16.9284H128.777L125.278 26.4492H126.887ZM130.921 22.8985H128.103L129.503 18.8312H129.542L130.921 22.8985ZM138.976 26.4492V18.2035H141.854V16.9284H134.511V18.2035H137.387V26.4492H138.976ZM149.562 26.4492V25.1806H145.187V16.9284H143.598V26.4492H149.562ZM152.15 26.4492L152.908 24.2259H156.635L157.388 26.4492H159.003L155.544 16.9284H154.04L150.541 26.4492H152.15ZM156.184 22.8985H153.366L154.766 18.8312H154.805L156.184 22.8985ZM163.905 26.5865C164.939 26.5865 165.773 26.3523 166.407 25.8836C167.041 25.415 167.359 24.7839 167.359 23.9906C167.359 23.2407 167.092 22.6239 166.56 22.14C166.029 21.6561 165.251 21.2768 164.226 21.0022C163.446 20.7885 162.887 20.5619 162.549 20.3222C162.211 20.0823 162.042 19.7815 162.042 19.4197C162.042 19.0187 162.198 18.6917 162.51 18.4389C162.822 18.186 163.267 18.0596 163.847 18.0596C164.462 18.0596 164.935 18.2111 165.266 18.5141C165.597 18.817 165.763 19.2126 165.763 19.7009H167.287L167.299 19.6617C167.321 18.8726 167.015 18.1969 166.38 17.6346C165.747 17.0722 164.906 16.791 163.86 16.791C162.857 16.791 162.039 17.0395 161.404 17.5365C160.771 18.0335 160.453 18.6655 160.453 19.4328C160.453 20.1783 160.74 20.781 161.313 21.2409C161.887 21.7008 162.705 22.0702 163.769 22.3492C164.514 22.5498 165.034 22.7765 165.328 23.0293C165.623 23.2822 165.769 23.6069 165.769 24.0036C165.769 24.4091 165.606 24.7305 165.279 24.9681C164.952 25.2057 164.494 25.3245 163.905 25.3245C163.265 25.3245 162.744 25.1817 162.343 24.8962C161.942 24.6107 161.741 24.1779 161.741 23.5982H160.211L160.198 23.6374C160.177 24.5529 160.54 25.2732 161.29 25.7986C162.04 26.3239 162.912 26.5865 163.905 26.5865Z" fill="white"/>
<path d="M123.23 3.05078H127.378H123.23Z" fill="white"/>
<path d="M123.23 3.05078H127.378" stroke="white" stroke-width="1.26"/>
<path d="M123.23 7.18164H127.378H123.23Z" fill="white"/>
<path d="M123.23 7.18164H127.378" stroke="white" stroke-width="1.26"/>
<defs>
<linearGradient id="paint0_linear_413_7820" x1="15.6223" y1="21.3799" x2="2.76627" y2="28.065" gradientUnits="userSpaceOnUse">
<stop stop-color="#1B8F29"/>
<stop offset="1" stop-color="#0FBC23"/>
</linearGradient>
<linearGradient id="paint1_linear_413_7820" x1="18.0737" y1="4.52419e-07" x2="32.4276" y2="23.3113" gradientUnits="userSpaceOnUse">
<stop stop-color="#BFECC4"/>
<stop offset="1" stop-color="#2E7636"/>
</linearGradient>
</defs>
</svg>
