<?xml version="1.0" encoding="utf-8"?>
<!-- Generator: Adobe Illustrator 28.2.0, SVG Export Plug-In . SVG Version: 6.00 Build 0)  -->
<svg version="1.1" id="Layer_1" xmlns="http://www.w3.org/2000/svg" xmlns:xlink="http://www.w3.org/1999/xlink" x="0px" y="0px"
	 viewBox="0 0 291 45" style="enable-background:new 0 0 291 45;" xml:space="preserve">
<style type="text/css">
	.st0{fill-rule:evenodd;clip-rule:evenodd;fill:#D1EDD4;}
	.st1{fill-rule:evenodd;clip-rule:evenodd;fill:url(#SVGID_1_);}
	.st2{fill-rule:evenodd;clip-rule:evenodd;fill:url(#SVGID_00000111905180860998141410000008540529448261505668_);}
	.st3{fill:#FFFFFF;}
</style>
<path class="st0" d="M31.7,10L25.8,0L0,44.2h11.9c3.7,0,7.2-2,9-5.2l10.8-18.4C33.6,17.3,33.6,13.3,31.7,10z"/>
<linearGradient id="SVGID_1_" gradientUnits="userSpaceOnUse" x1="23.9074" y1="14.2386" x2="2.4806" y2="3.0967" gradientTransform="matrix(1 0 0 -1 0 46)">
	<stop  offset="0" style="stop-color:#1B8F29"/>
	<stop  offset="1" style="stop-color:#0FBC23"/>
</linearGradient>
<path class="st1" d="M25.9,30.7h-12c-3.7,0-7.1,2-9,5.2L0,44.2h12c3.7,0,7.1-2,9-5.2L25.9,30.7z"/>
<linearGradient id="SVGID_00000124875156384011752190000001150957890123183770_" gradientUnits="userSpaceOnUse" x1="20.012" y1="39.844" x2="43.935" y2="0.9919" gradientTransform="matrix(1 0 0 -1 0 46)">
	<stop  offset="0" style="stop-color:#BFECC4"/>
	<stop  offset="1" style="stop-color:#2E7636"/>
</linearGradient>
<path style="fill-rule:evenodd;clip-rule:evenodd;fill:url(#SVGID_00000124875156384011752190000001150957890123183770_);" d="
	M19.9,10l5.9-10l25.8,44.2H39.7c-3.7,0-7.2-2-9-5.2L19.9,20.6C18,17.3,18,13.3,19.9,10z"/>
<path class="st3" d="M280.3,19V3.6h9.8v2.2h-7.3v4.3h6.7v2.2h-6.7v4.5h7.3V19H280.3z"/>
<path class="st3" d="M268.4,19h-2.5V3.6h6.6c1.4,0,2.5,0.4,3.3,1.3c0.8,0.8,1.2,1.9,1.2,3.4c0,1.1-0.3,2-0.8,2.7
	c-0.5,0.7-1.2,1.2-2.2,1.5l3.3,6.5h-2.8l-3.1-6.2h-3.1V19z M272.3,10.7c0.6,0,1.1-0.2,1.5-0.5c0.4-0.3,0.5-0.8,0.5-1.4V7.7
	c0-0.6-0.2-1.1-0.5-1.4c-0.4-0.3-0.8-0.5-1.5-0.5h-4v4.9H272.3z"/>
<path class="st3" d="M253.2,3.6v9.5c0,1.3,0.2,2.3,0.7,2.9c0.5,0.7,1.3,1,2.6,1s2.1-0.3,2.6-1c0.5-0.7,0.7-1.6,0.7-2.9V3.6h2.4v9.1
	c0,1.1-0.1,2.1-0.3,2.9c-0.2,0.8-0.5,1.5-1,2c-0.5,0.5-1,0.9-1.8,1.2c-0.7,0.3-1.6,0.4-2.7,0.4c-1.1,0-2-0.1-2.7-0.4
	c-0.7-0.3-1.3-0.7-1.8-1.2c-0.5-0.5-0.8-1.2-1-2c-0.2-0.8-0.3-1.8-0.3-2.9V3.6H253.2z"/>
<path class="st3" d="M243.8,5.8V19h-2.5V5.8h-4.6V3.6h11.6v2.2H243.8z"/>
<path class="st3" d="M228.4,19V3.6h2.5v13.2h6.2V19H228.4z"/>
<path class="st3" d="M215.7,3.6v9.5c0,1.3,0.2,2.3,0.7,2.9c0.5,0.7,1.4,1,2.6,1c1.2,0,2.1-0.3,2.6-1c0.5-0.7,0.7-1.6,0.7-2.9V3.6
	h2.4v9.1c0,1.1-0.1,2.1-0.3,2.9c-0.2,0.8-0.5,1.5-1,2c-0.5,0.5-1,0.9-1.8,1.2c-0.7,0.3-1.6,0.4-2.7,0.4s-1.9-0.1-2.7-0.4
	c-0.7-0.3-1.3-0.7-1.8-1.2c-0.5-0.5-0.8-1.2-1-2c-0.2-0.8-0.3-1.8-0.3-2.9V3.6H215.7z"/>
<path class="st3" d="M205.2,19.3c-2,0-3.6-0.7-4.7-2c-1.1-1.4-1.7-3.3-1.7-5.9c0-1.3,0.1-2.4,0.4-3.4c0.3-1,0.7-1.8,1.3-2.5
	c0.6-0.7,1.2-1.2,2-1.5c0.8-0.4,1.7-0.5,2.7-0.5c1.3,0,2.4,0.3,3.3,0.9c0.9,0.6,1.6,1.5,2.1,2.6L208.5,8c-0.3-0.7-0.7-1.3-1.2-1.7
	c-0.5-0.4-1.3-0.7-2.2-0.7c-1.2,0-2.1,0.4-2.8,1.2c-0.7,0.8-1,1.9-1,3.3v2.3c0,1.4,0.3,2.5,1,3.3c0.7,0.8,1.6,1.2,2.8,1.2
	c0.9,0,1.7-0.2,2.2-0.7c0.6-0.5,1-1.1,1.3-1.8l2,1.2c-0.5,1.1-1.2,2-2.2,2.6C207.6,18.9,206.5,19.3,205.2,19.3z"/>
<path class="st3" d="M189.6,19v-2h2.1V5.7h-2.1v-2h6.7v2h-2.1V17h2.1v2H189.6z"/>
<path class="st3" d="M178.3,19h-2.5V3.6h6.6c1.4,0,2.5,0.4,3.3,1.3c0.8,0.8,1.2,1.9,1.2,3.4c0,1.1-0.3,2-0.8,2.7
	c-0.5,0.7-1.2,1.2-2.2,1.5l3.3,6.5h-2.8l-3.1-6.2h-3.1V19z M182.3,10.7c0.6,0,1.1-0.2,1.5-0.5c0.4-0.3,0.5-0.8,0.5-1.4V7.7
	c0-0.6-0.2-1.1-0.5-1.4c-0.4-0.3-0.8-0.5-1.5-0.5h-4v4.9H182.3z"/>
<path class="st3" d="M170.2,16.7L170.2,16.7c-0.2,0.7-0.7,1.4-1.4,1.9c-0.7,0.5-1.6,0.7-2.8,0.7c-0.9,0-1.8-0.2-2.5-0.5
	c-0.8-0.4-1.5-0.9-2-1.5c-0.6-0.7-1-1.5-1.3-2.5c-0.3-1-0.5-2.1-0.5-3.4c0-1.3,0.2-2.4,0.5-3.4c0.3-1,0.8-1.8,1.4-2.5
	c0.6-0.7,1.3-1.2,2.1-1.5c0.8-0.4,1.7-0.5,2.8-0.5c1.4,0,2.5,0.3,3.5,0.9c1,0.6,1.7,1.4,2.2,2.5L170,8c-0.3-0.7-0.7-1.3-1.4-1.7
	c-0.6-0.5-1.4-0.7-2.3-0.7c-1.2,0-2.2,0.4-2.9,1.2c-0.7,0.8-1.1,1.9-1.1,3.3v2.5c0,1.4,0.4,2.5,1.1,3.3c0.7,0.8,1.7,1.2,2.9,1.2
	c0.5,0,0.9-0.1,1.4-0.2c0.4-0.1,0.8-0.3,1.1-0.5c0.3-0.2,0.6-0.6,0.8-0.9c0.2-0.4,0.3-0.8,0.3-1.3v-1.2h-3.2v-2.1h5.6V19h-2.2V16.7z
	"/>
<path class="st3" d="M155.8,19l-1.4-4.2h-5.7l-1.3,4.2h-2.5L150,3.6h3.1l5.2,15.4H155.8z M151.6,5.9h-0.1l-2.2,6.8h4.5L151.6,5.9z"
	/>
<path class="st3" d="M136,19l-1.4-4.2h-5.7l-1.3,4.2H125l5.2-15.4h3.1l5.2,15.4H136z M131.8,5.9h-0.1l-2.2,6.8h4.5L131.8,5.9z"/>
<path class="st3" d="M118.3,19.3c-2,0-3.6-0.7-4.7-2c-1.1-1.4-1.7-3.3-1.7-5.9c0-1.3,0.1-2.4,0.4-3.4c0.3-1,0.7-1.8,1.3-2.5
	c0.6-0.7,1.2-1.2,2-1.5c0.8-0.4,1.7-0.5,2.7-0.5c1.3,0,2.4,0.3,3.3,0.9c0.9,0.6,1.6,1.5,2.1,2.6L121.7,8c-0.3-0.7-0.7-1.3-1.2-1.7
	c-0.5-0.4-1.3-0.7-2.2-0.7c-1.2,0-2.1,0.4-2.8,1.2c-0.7,0.8-1,1.9-1,3.3v2.3c0,1.4,0.3,2.5,1,3.3c0.7,0.8,1.6,1.2,2.8,1.2
	c0.9,0,1.7-0.2,2.2-0.7c0.6-0.5,1-1.1,1.3-1.8l2,1.2c-0.5,1.1-1.2,2-2.2,2.6C120.8,18.9,119.7,19.3,118.3,19.3z"/>
<path class="st3" d="M102.8,19v-2h2.1V5.7h-2.1v-2h6.7v2h-2.1V17h2.1v2H102.8z"/>
<path class="st3" d="M91.5,19H89V3.6h6.6c1.4,0,2.5,0.4,3.3,1.3c0.8,0.8,1.2,1.9,1.2,3.4c0,1.1-0.3,2-0.8,2.7
	c-0.5,0.7-1.2,1.2-2.2,1.5l3.3,6.5h-2.8l-3.1-6.2h-3.1V19z M95.5,10.7c0.6,0,1.1-0.2,1.5-0.5c0.4-0.3,0.5-0.8,0.5-1.4V7.7
	c0-0.6-0.2-1.1-0.5-1.4c-0.4-0.3-0.8-0.5-1.5-0.5h-4v4.9H95.5z"/>
<path class="st3" d="M76.5,19V3.6h9.6v2.2h-7.1v4.3h6.3v2.2h-6.3V19H76.5z"/>
<path class="st3" d="M71.5,19l-1.4-4.2h-5.7L63,19h-2.5l5.2-15.4h3.1L74.1,19H71.5z M67.3,5.9h-0.1l-2.2,6.8h4.5L67.3,5.9z"/>
<path class="st3" d="M258.6,44.3c-1.3,0-2.4-0.2-3.3-0.7c-0.9-0.5-1.7-1.1-2.3-1.9l1.7-1.6c0.5,0.7,1.1,1.2,1.8,1.5
	c0.7,0.3,1.4,0.5,2.2,0.5c1,0,1.7-0.2,2.2-0.7c0.5-0.4,0.7-1,0.7-1.8c0-0.6-0.2-1.1-0.5-1.4c-0.4-0.4-1-0.6-1.9-0.8l-1.4-0.2
	c-1.5-0.3-2.6-0.8-3.4-1.5c-0.7-0.7-1.1-1.7-1.1-2.9c0-0.7,0.1-1.3,0.4-1.8c0.3-0.6,0.6-1,1.1-1.4c0.5-0.4,1-0.7,1.7-0.9
	c0.7-0.2,1.4-0.3,2.2-0.3c1.2,0,2.2,0.2,3,0.6c0.9,0.4,1.6,1,2.2,1.7l-1.7,1.5c-0.4-0.5-0.9-0.9-1.5-1.2c-0.6-0.3-1.3-0.5-2.1-0.5
	c-0.9,0-1.6,0.2-2,0.5c-0.5,0.4-0.7,0.9-0.7,1.5c0,0.6,0.2,1.1,0.6,1.5c0.4,0.3,1,0.5,1.8,0.7l1.4,0.3c1.5,0.3,2.7,0.8,3.4,1.5
	c0.7,0.7,1.1,1.7,1.1,2.9c0,0.7-0.1,1.4-0.4,2c-0.2,0.6-0.6,1.1-1.1,1.5c-0.5,0.4-1,0.7-1.7,1C260.3,44.2,259.5,44.3,258.6,44.3z"/>
<path class="st3" d="M249.1,44l-1.4-4.2h-5.7l-1.3,4.2h-2.5l5.2-15.4h3.1l5.2,15.4H249.1z M244.9,30.9h-0.1l-2.2,6.8h4.5L244.9,30.9
	z"/>
<path class="st3" d="M227.8,44V28.6h2.5v13.2h6.2V44H227.8z"/>
<path class="st3" d="M220.8,30.8V44h-2.5V30.8h-4.6v-2.2h11.6v2.2H220.8z"/>
<path class="st3" d="M211.6,44l-1.4-4.2h-5.7l-1.3,4.2h-2.5l5.2-15.4h3.1l5.2,15.4H211.6z M207.4,30.9h-0.1l-2.2,6.8h4.5L207.4,30.9
	z"/>
<path class="st3" d="M185.2,35.5l-1.7-3.3h-0.1V44h-2.4V28.6h2.8l5,8.5l1.7,3.3h0.1V28.6h2.4V44h-2.8L185.2,35.5z"/>
<path class="st3" d="M171.4,44.3c-1,0-1.9-0.2-2.7-0.5c-0.8-0.4-1.5-0.9-2.1-1.5c-0.6-0.7-1-1.5-1.3-2.5c-0.3-1-0.5-2.1-0.5-3.4
	c0-1.3,0.2-2.4,0.5-3.4c0.3-1,0.8-1.8,1.3-2.5c0.6-0.7,1.3-1.2,2.1-1.5c0.8-0.4,1.7-0.5,2.7-0.5c1,0,1.9,0.2,2.7,0.5
	c0.8,0.3,1.5,0.8,2.1,1.5c0.6,0.7,1,1.5,1.3,2.5c0.3,1,0.5,2.1,0.5,3.4c0,1.3-0.2,2.4-0.5,3.4c-0.3,1-0.8,1.8-1.3,2.5
	c-0.6,0.7-1.3,1.2-2.1,1.5C173.3,44.1,172.4,44.3,171.4,44.3z M171.4,42c0.6,0,1.1-0.1,1.6-0.3c0.5-0.2,0.9-0.5,1.3-0.9
	c0.4-0.4,0.6-0.9,0.8-1.4c0.2-0.6,0.3-1.2,0.3-1.9v-2.4c0-0.7-0.1-1.3-0.3-1.9c-0.2-0.6-0.5-1-0.8-1.4c-0.3-0.4-0.8-0.7-1.3-0.9
	c-0.5-0.2-1-0.3-1.6-0.3c-0.6,0-1.1,0.1-1.6,0.3s-0.9,0.5-1.3,0.9c-0.3,0.4-0.6,0.9-0.8,1.4c-0.2,0.6-0.3,1.2-0.3,1.9v2.4
	c0,0.7,0.1,1.3,0.3,1.9c0.2,0.6,0.5,1,0.8,1.4c0.4,0.4,0.8,0.7,1.3,0.9S170.8,42,171.4,42z"/>
<path class="st3" d="M155.6,44v-2h2.1V30.7h-2.1v-2h6.7v2h-2.1V42h2.1v2H155.6z"/>
<path class="st3" d="M149.4,30.8V44h-2.5V30.8h-4.6v-2.2H154v2.2H149.4z"/>
<path class="st3" d="M140.2,44l-1.4-4.2H133l-1.3,4.2h-2.5l5.2-15.4h3.1l5.2,15.4H140.2z M136,30.9h-0.1l-2.2,6.8h4.5L136,30.9z"/>
<path class="st3" d="M125,30.8V44h-2.5V30.8H118v-2.2h11.6v2.2H125z"/>
<path class="st3" d="M105.5,44V28.6h6.6c1.4,0,2.5,0.4,3.3,1.3c0.8,0.8,1.2,2,1.2,3.4c0,1.4-0.4,2.5-1.2,3.4
	c-0.8,0.8-1.9,1.3-3.3,1.3H108V44H105.5z M108,35.7h4c0.6,0,1.1-0.2,1.5-0.5c0.4-0.3,0.5-0.8,0.5-1.4v-1.1c0-0.6-0.2-1.1-0.5-1.4
	c-0.4-0.3-0.8-0.5-1.5-0.5h-4V35.7z"/>
<path class="st3" d="M100.6,44l-1.4-4.2h-5.7L92.1,44h-2.5l5.2-15.4h3.1l5.2,15.4H100.6z M96.4,30.9h-0.1L94,37.7h4.5L96.4,30.9z"/>
<path class="st3" d="M76.5,28.6h5.4c1,0,1.9,0.2,2.7,0.5c0.8,0.3,1.5,0.8,2,1.5c0.6,0.6,1,1.4,1.3,2.4c0.3,1,0.5,2.1,0.5,3.3
	c0,1.3-0.2,2.4-0.5,3.4c-0.3,1-0.7,1.8-1.3,2.4c-0.6,0.6-1.2,1.1-2,1.4c-0.8,0.3-1.7,0.5-2.7,0.5h-5.4V28.6z M81.9,41.8
	c1.1,0,2.1-0.4,2.8-1.1c0.7-0.7,1.1-1.8,1.1-3.2v-2.5c0-1.4-0.4-2.4-1.1-3.2c-0.7-0.7-1.6-1.1-2.8-1.1h-2.9v11H81.9z"/>
<path class="st3" d="M71.5,44l-1.4-4.2h-5.7L63,44h-2.5l5.2-15.4h3.1L74.1,44H71.5z M67.3,30.9h-0.1l-2.2,6.8h4.5L67.3,30.9z"/>
</svg>
