<svg width="26" height="33" viewBox="0 0 26 33" fill="none" xmlns="http://www.w3.org/2000/svg">
<path fill-rule="evenodd" clip-rule="evenodd" d="M17.8478 0.00926089C18.6798 0.0705895 19.4666 0.429301 20.0579 1.02639L24.4493 5.4513C25.095 6.10161 25.4571 6.97988 25.4571 7.89634V28.9286C25.4571 29.8497 25.0915 30.7326 24.44 31.3829C23.7897 32.0343 22.9068 32.4 21.9857 32.4H3.47143C2.55034 32.4 1.66744 32.0343 1.01713 31.3829C0.365659 30.7326 0 29.8497 0 28.9286V3.47143C0 1.55404 1.55404 0 3.47143 0H17.5944C17.6163 0 17.6395 -6.35693e-07 17.6615 0.00115651C17.6742 -6.35693e-07 17.6881 0 17.7008 0C17.7506 0 17.7992 0.00347517 17.8478 0.00926089ZM22.3548 6.6258L18.858 3.1023V5.46865C18.858 5.7753 18.9795 6.06921 19.197 6.28676C19.4134 6.50314 19.7085 6.6258 20.0151 6.6258H22.3548ZM5.84357 12.7286C5.20483 12.7286 4.68643 12.2102 4.68643 11.5714C4.68643 10.9327 5.20483 10.4143 5.84357 10.4143H19.7293C20.368 10.4143 20.8864 10.9327 20.8864 11.5714C20.8864 12.2102 20.368 12.7286 19.7293 12.7286H5.84357ZM5.84357 6.94286C5.20483 6.94286 4.68643 6.42446 4.68643 5.78571C4.68643 5.14697 5.20483 4.62857 5.84357 4.62857H10.4721C11.1109 4.62857 11.6293 5.14697 11.6293 5.78571C11.6293 6.42446 11.1109 6.94286 10.4721 6.94286H5.84357ZM5.84357 17.3571C5.20483 17.3571 4.68643 16.8387 4.68643 16.2C4.68643 15.5613 5.20483 15.0429 5.84357 15.0429H19.7293C20.368 15.0429 20.8864 15.5613 20.8864 16.2C20.8864 16.8387 20.368 17.3571 19.7293 17.3571H5.84357ZM5.84357 26.6143C5.20483 26.6143 4.68643 26.0959 4.68643 25.4571C4.68643 24.8184 5.20483 24.3 5.84357 24.3H19.7293C20.368 24.3 20.8864 24.8184 20.8864 25.4571C20.8864 26.0959 20.368 26.6143 19.7293 26.6143H5.84357ZM5.84357 21.9857C5.20483 21.9857 4.68643 21.4673 4.68643 20.8286C4.68643 20.1898 5.20483 19.6714 5.84357 19.6714H19.7293C20.368 19.6714 20.8864 20.1898 20.8864 20.8286C20.8864 21.4673 20.368 21.9857 19.7293 21.9857H5.84357Z" fill="#4F4F4F"/>
</svg>
