<svg width="18" height="17" viewBox="0 0 18 17" fill="none" xmlns="http://www.w3.org/2000/svg">
<path d="M18 15.8214C18 15.9425 17.9537 16.0586 17.8712 16.1443C17.7887 16.2299 17.6768 16.278 17.5601 16.278H0.439883C0.323219 16.278 0.211333 16.2299 0.128839 16.1443C0.0463446 16.0586 0 15.9425 0 15.8214C0 15.7003 0.0463446 15.5841 0.128839 15.4985C0.211333 15.4128 0.323219 15.3647 0.439883 15.3647H1.26686V9.2524C1.26686 9.13128 1.31321 9.01513 1.3957 8.92949C1.47819 8.84385 1.59008 8.79574 1.70675 8.79574H4.8783C4.99496 8.79574 5.10685 8.84385 5.18934 8.92949C5.27184 9.01513 5.31818 9.13128 5.31818 9.2524V15.3647H6.97434V4.65388C6.97434 4.53277 7.02068 4.41662 7.10318 4.33098C7.18567 4.24534 7.29756 4.19723 7.41422 4.19723H10.5858C10.7024 4.19723 10.8143 4.24534 10.8968 4.33098C10.9793 4.41662 11.0257 4.53277 11.0257 4.65388V15.3647H12.6818V0.980092C12.6818 0.85898 12.7282 0.742828 12.8107 0.657189C12.8932 0.571549 13.005 0.523437 13.1217 0.523438H16.2933C16.4099 0.523438 16.5218 0.571549 16.6043 0.657189C16.6868 0.742828 16.7331 0.85898 16.7331 0.980092V15.3647H17.5601C17.6768 15.3647 17.7887 15.4128 17.8712 15.4985C17.9537 15.5841 18 15.7003 18 15.8214Z" fill="#4F4F4F"/>
</svg>
