<svg width="32" height="27" viewBox="0 0 32 27" fill="none" xmlns="http://www.w3.org/2000/svg">
<path d="M31.5984 25.6348C31.5984 25.8377 31.5181 26.0324 31.3751 26.1759C31.2321 26.3194 31.0382 26.4 30.836 26.4H1.1609C0.958683 26.4 0.764747 26.3194 0.621758 26.1759C0.478768 26.0324 0.398438 25.8377 0.398438 25.6348C0.398438 25.4318 0.478768 25.2372 0.621758 25.0937C0.764747 24.9502 0.958683 24.8696 1.1609 24.8696H2.59433V14.6271C2.59433 14.4242 2.67466 14.2295 2.81765 14.086C2.96064 13.9425 3.15458 13.8619 3.3568 13.8619H8.85416C9.05637 13.8619 9.25031 13.9425 9.3933 14.086C9.53629 14.2295 9.61662 14.4242 9.61662 14.6271V24.8696H12.4873V6.92139C12.4873 6.71844 12.5676 6.52381 12.7106 6.3803C12.8536 6.2368 13.0475 6.15617 13.2498 6.15617H18.7471C18.9493 6.15617 19.1433 6.2368 19.2863 6.3803C19.4293 6.52381 19.5096 6.71844 19.5096 6.92139V24.8696H22.3803V0.765217C22.3803 0.562269 22.4606 0.367633 22.6036 0.224127C22.7466 0.080621 22.9405 0 23.1427 0H28.6401C28.8423 0 29.0362 0.080621 29.1792 0.224127C29.3222 0.367633 29.4025 0.562269 29.4025 0.765217V24.8696H30.836C31.0382 24.8696 31.2321 24.9502 31.3751 25.0937C31.5181 25.2372 31.5984 25.4318 31.5984 25.6348Z" fill="white"/>
</svg>
