<svg width="21" height="22" viewBox="0 0 21 22" fill="none" xmlns="http://www.w3.org/2000/svg">
<path d="M10.5 18.3334C9.53047 18.3334 8.69047 18.1206 7.98 17.6954C7.27206 17.2717 6.70605 16.6715 6.34638 15.963C5.96397 15.2259 5.68404 14.4463 5.51337 13.6433C5.33229 12.7724 5.24407 11.887 5.25 11C5.25 10.2976 5.2955 9.62618 5.38737 8.98412C5.47838 8.34291 5.64725 7.69103 5.89313 7.02941C6.139 6.36777 6.45575 5.79415 6.84162 5.3077C7.24335 4.80935 7.76278 4.40371 8.35975 4.12215C8.98624 3.81822 9.69847 3.66666 10.5 3.66666C11.4695 3.66666 12.3095 3.87934 13.02 4.30466C13.728 4.72831 14.2939 5.32851 14.6536 6.03696C15.0334 6.76622 15.3108 7.53948 15.4867 8.3567C15.6616 9.17315 15.75 10.0548 15.75 11C15.75 11.7024 15.7045 12.3738 15.6127 13.0159C15.5147 13.6825 15.3417 14.3377 15.0964 14.9706C14.8426 15.6322 14.5276 16.2059 14.1479 16.6923C13.7681 17.1787 13.2659 17.5739 12.6402 17.8779C12.0146 18.1818 11.3015 18.3334 10.5 18.3334ZM12.3533 12.9415C12.8554 12.4337 13.1347 11.7311 13.125 11C13.125 10.2446 12.8738 9.5975 12.3725 9.0585C11.8703 8.5195 11.2463 8.25 10.5 8.25C9.75366 8.25 9.12979 8.5195 8.62747 9.0585C8.13567 9.57195 7.86406 10.2727 7.875 11C7.875 11.7554 8.12613 12.4025 8.62747 12.9415C9.12979 13.4805 9.75366 13.75 10.5 13.75C11.2463 13.75 11.8642 13.4805 12.3533 12.9415ZM10.5 22C16.2986 22 21 17.0747 21 11C21 4.92525 16.2986 0 10.5 0C4.70137 0 0 4.92525 0 11C0 17.0747 4.70137 22 10.5 22Z" fill="white"/>
</svg>
